<svg xmlns="http://www.w3.org/2000/svg" width="1008.458" height="1008.457" viewBox="0 0 1008.458 1008.457"><g fill="#666"><path d="M498.973 0C223.398 0 0 223.397 0 498.972s223.398 498.973 498.973 498.973c275.574 0 498.973-223.398 498.973-498.973S774.546 0 498.973 0zm.89 962.305c-256.382 0-464.222-207.84-464.222-464.223S243.48 33.86 499.865 33.86 964.087 241.697 964.087 498.08s-207.84 464.223-464.223 464.223z"/><path d="M641.948 550.125l-16.106-139.582 94.844-102.002-144.95-21.473-62.632-130.634-66.212 123.476L309.1 310.33l94.844 102.003-14.317 137.792 125.266-59.054M182.05 771.727h22.5V765.4h60.47v7.03h24.608v-68.906H182.05v68.203zm22.5-48.516h60.47v25.314h-60.47V723.21zM247.44 618.445c.46-.934 1.165-1.868 2.11-2.813 1.405-1.868 1.867-3.043 1.405-3.516 0-.462-7.734-1.868-23.203-4.22-2.813-.46-4.922-.702-6.328-.702-10.316 29.53-33.75 53.438-70.313 71.72 5.626 3.756 11.01 9.612 16.173 17.577 6.56-4.218 14.293-9.843 23.203-16.874v9.14h88.594v-7.03c8.438 4.69 17.336 9.14 26.72 13.36 3.273-8.9 7.733-17.106 13.358-24.61-30.003-7.03-53.91-24.368-71.718-52.03zm-44.296 51.328c11.25-10.306 21.555-21.556 30.938-33.75 11.25 15.94 20.852 27.19 28.828 33.75h-59.766zM483.69 614.93H347.284v156.094h21.094v-137.11h92.11v110.39c2.34 3.758-4.692 5.396-21.095 4.923 4.22 4.69 6.56 11.953 7.03 21.797 25.314 0 37.728-6.098 37.267-18.28V614.93z"/><path d="M446.425 738.68v-59.063h-65.39v61.875h19.687v-9.14h23.906v6.327h21.797zm-45.703-23.907v-16.875h23.906v16.875h-23.906zM374.706 647.273h77.344v18.984h-77.344zM585.643 751.336c-1.406-5.625-4.69-15.228-9.844-28.828-.945-1.868-1.407-3.043-1.407-3.516-8.438 2.813-13.36 4.922-14.766 6.328 4.22 10.316 7.734 21.797 10.547 34.453l15.47-4.922v14.767h21.796v-7.734h31.64v7.734h23.907V700.71h-77.344v50.626zm21.797-32.344h31.64v25.313h-31.64v-25.313z"/><path d="M634.862 624.773c0-4.22.23-7.734.703-10.547.462-1.406.462-2.34 0-2.813 1.868-.934-5.866-1.406-23.203-1.406v23.906h-37.97v11.25l-18.28-8.438c-3.285 7.976-5.625 13.36-7.03 16.172-.945 2.813-1.648 4.922-2.11 6.328l-10.547.703c6.56-14.996 13.82-29.29 21.797-42.89.462 0-4.22-1.638-14.063-4.923-4.22-1.868-7.273-3.043-9.142-3.516-7.504 30.937-14.766 47.58-21.797 49.92-1.878 0-2.812.704-2.812 2.11 2.813 11.723 4.45 18.05 4.922 18.984 9.37-1.868 17.105-2.57 23.203-2.11-7.504 14.536-15.47 22.5-23.906 23.907 1.406 7.977 2.813 14.305 4.22 18.985 10.305-2.34 25.07-4.45 44.296-6.328.462.473.934 1.176 1.406 2.11.46 1.405.702 2.35.702 2.812l16.875-7.032c-2.813-7.965-7.504-18.743-14.063-32.344-6.57 2.35-11.723 4.46-15.47 6.328 1.407 3.285 2.814 6.8 4.22 10.547-5.163.943-9.613 1.405-13.36 1.405 4.682-6.087 13.12-19.446 25.314-40.078 2.813-4.68 4.68-7.734 5.625-9.14v4.218h37.97v18.984h-32.345v17.577h88.594V671.88h-33.75v-18.985h40.078V633.91h-40.078v-9.137zM540.643 727.43c.934 9.844.934 21.797 0 35.86l17.578-2.814c0-10.306-.943-22.027-2.812-35.156l-14.765 2.11zM525.174 722.508c-2.813-.462-4.69-.703-5.625-.703-.474 13.13-3.758 26.72-9.845 40.78l19.688 3.517c2.813-12.656 5.384-26.72 7.734-42.188 0-.462-3.988-.934-11.953-1.406zM807.127 668.367v-7.03h37.97v-15.47h-37.97v-5.625h42.89v-16.875h-42.89v-3.516c0-1.867.23-3.977.703-6.327.462-1.868.703-3.043.703-3.516.934-.934-3.054-1.406-11.953-1.406h-11.25v14.767h-40.078v16.875h40.078v5.625h-32.344v15.47h32.344v7.03H733.3v16.172h127.265v-16.173h-53.438zM709.393 614.93c-4.69 5.163-7.976 8.68-9.844 10.547 11.25 7.504 20.148 14.535 26.718 21.094 1.406-1.405 3.978-4.448 7.734-9.14 3.274-4.22 5.855-7.493 7.734-9.844-2.813-3.274-11.25-10.074-25.313-20.39-1.405 1.406-3.756 3.988-7.03 7.734zM724.16 700.71c-3.286-1.867-5.396-3.273-6.33-4.218-5.162 20.16-12.896 40.78-23.202 61.875 2.34 2.34 6.56 5.383 12.656 9.14 4.68 2.814 7.965 4.923 9.844 6.33 1.406-7.505 6.087-23.204 14.063-47.11 2.34-7.965 4.22-14.063 5.626-18.28.46-.002-3.758-2.573-12.657-7.736zM719.94 685.945c3.746-5.625 6.79-9.844 9.14-12.656-9.38-7.494-19.225-14.525-29.53-21.095-.944 1.406-2.35 3.285-4.22 5.625-4.69 5.625-7.975 9.844-9.843 12.656 8.438 6.098 18.28 13.36 29.53 21.797.935-1.406 2.572-3.515 4.923-6.328zM842.284 690.164h-92.11v81.563h21.798v-24.61h47.813v4.923c.462 1.406-.944 2.11-4.22 2.11h-9.843c3.274 5.15 4.922 11.25 4.922 18.28 24.368 2.813 34.915-2.813 31.64-16.875v-65.39zm-70.313 16.172h47.11v6.328h-47.11v-6.328zm47.814 26.016H771.97v-5.625h47.814v5.625z"/></g></svg>