<svg xmlns="http://www.w3.org/2000/svg" width="1008.458" height="1008.457" viewBox="0 0 1008.458 1008.457"><g fill-rule="evenodd" clip-rule="evenodd" fill="#333"><path d="M500.973 4C225.398 4 2 227.397 2 502.972s223.398 498.973 498.973 498.973c275.574 0 498.973-223.398 498.973-498.973S776.546 4 500.973 4zm.89 962.305c-256.382 0-464.222-207.84-464.222-464.223S245.48 37.86 501.865 37.86 966.087 245.697 966.087 502.08s-207.84 464.223-464.223 464.223z"/><path d="M426.09 239.753l39.046.394-1.042 103.38c-.06 5.82 4.627 10.58 10.426 10.64l76.18.767c5.798.058 10.578-4.607 10.637-10.426l1.042-103.38 39.046.394v-.03c3.15.03 6.27-1.34 8.357-4 3.583-4.56 2.83-11.158-1.743-14.745l-43.5-34.35-43.33-34.21c-3.662-3.02-9.05-3.25-12.987-.26l-44.183 33.457-43.53 32.975c-2.89 1.85-4.81 5.077-4.846 8.757-.06 5.82 4.604 10.578 10.425 10.636z"/><path d="M804.668 358.922l-232.482-87.077v47.526L733.4 379.76l-216.85 80.905v-89.48h-10.097v85.948L394.45 416.77l-110.69-39.875 166.426-57.566v-47.06l-231.9 81.035-9.958 9.96-94.814 94.79 7.692 36.528 80.285 31.467-.346 135.06-.022 14.695 13.536 5.777 293.18 125.22 31.054 13.26 277.86-137.19 1.827-215.923v-40.57l5.175 1.666 8.64 29.292 25.115-7.09 7.647-28.95-60.49-62.376zM169.19 465.52l60.765-60.717 235.557 84.882-58.057 69.125-238.265-93.29zm325.044 287.036l-248.57-106.184.276-102.95 160.175 62.725 14.88 5.848 10.327-12.292 62.912-74.9v227.753z"/></g></svg>