<svg xmlns="http://www.w3.org/2000/svg" width="1008.458" height="1008.457" viewBox="0 0 1008.458 1008.457"><g fill="#666"><path d="M498.973 4C223.398 4 0 227.397 0 502.972s223.398 498.973 498.973 498.973c275.574 0 498.973-223.398 498.973-498.973S774.546 4 498.973 4zm.89 962.305c-256.382 0-464.222-207.84-464.222-464.223S243.48 37.86 499.865 37.86 964.087 245.697 964.087 502.08s-207.84 464.223-464.223 464.223z"/><path d="M741.116 269.053c.915-17.378-16.613-16.033-16.613-16.033l-54.006 60.006C502.48 139.01 253.457 253.02 253.457 253.02c.678-.06 1.346-.11 2.02-.166l-3.83 1.008s151.84 74.355 129.925 208.978c0 0 46.18-5.48 70.834 19.176l10.957-17.22s-18.002-20.74-61.05-18c0 0 14.09-127.58-116.62-192.15l-1.83-3.292C461.07 247.67 466.478 361.03 466.478 361.03c150.015 36.004 159.016 156.017 159.016 156.017 117.01 18 111.01 180.018 111.01 180.018 102.012-210.02-47.29-369.247-47.29-369.247l51.903-58.765z"/><path d="M340.373 765.038c-3.334 13.334-24.667 14.667-24.667 14.667-64.666-12.668-32.667-63.333-32.667-63.333L558.37 445.705c2-21.333-12-16.667-16-19.333s-232.666 228-276 273.333c-39.738 41.572-2 86.667-2 86.667 44 46 94-.667 94-.667 4-32.668-18-20.667-18-20.667zM651.038 721.04c-21.332-16-20.666-27.333-26-34-5.332-6.666-8-32-14-62s-40.666-30-40.666-30c-44.668 0-48.667 40-48.667 40l-6 40c-4 32-25.333 44-25.333 44-33.334 23.334 0 44.667 0 44.667 18.666 16 68 18 68 18 8-.667 54.666 2 90-16.667 35.332-18.666 2.666-44 2.666-44zm-80.02 47.324c-45.084-1.303-81.38-11.1-80.997-24.35.335-11.54 28.39-21.89 65.415-23.508-3.46 3.937-5.64 9.136-5.807 14.892-.367 12.697 9.182 23.275 21.327 23.627 12.145.35 22.287-9.657 22.654-22.355.167-5.823-1.754-11.196-5.05-15.347 37.273 3.284 65.12 13.787 64.783 25.41-.382 13.25-37.24 22.934-82.325 21.63z"/></g></svg>