<svg xmlns="http://www.w3.org/2000/svg" width="1008.458" height="1008.457" viewBox="0 0 1008.458 1008.457"><path d="M498.973 0C223.398 0 0 223.397 0 498.972s223.398 498.973 498.973 498.973c275.574 0 498.973-223.398 498.973-498.973S774.546 0 498.973 0zm.89 962.305c-256.382 0-464.222-207.84-464.222-464.223S243.48 33.86 499.865 33.86 964.087 241.697 964.087 498.08s-207.84 464.223-464.223 464.223z" fill-rule="evenodd" clip-rule="evenodd" fill="#666"/><g fill-rule="evenodd" clip-rule="evenodd" fill="#666"><path d="M329.032 593.324l37.81 17.407c153.287-155.64 106.238-333.08 6.305-479.476-48.104 12.76-110.34 43.905-153.018 119.045l-5.88 14.42 81.66 73.81L184.286 605.74 312.083 808.84c2.065 4.25 3.782 7.02 4.655 6.967 12.15-.736 25.173-10.814 32.306-26.35 7.713-16.797 6.093-34.648-3-43.893-76.41-133.83-53.863-218.716 33.786-323.567l10.354 4.776c-61.65 89.97-70.75 136.575-61.152 166.55z"/><path d="M493.647 674.182h.02l.716-.202 41.81-13.248c10.71-3.38 15.744-16.462 15.232-34.89-.39-14.086-3.707-32.448-9.807-51.757-6.103-19.308-13.964-36.238-21.743-47.97-10.176-15.377-21.826-23.198-32.535-19.8-.368.105-.715.247-1.084.37l-39.617 12.55c-.37.083-.738.185-1.105.308-.35.123-.717.245-1.065.367l-.738.248.022.06c-9.48 4.24-13.924 16.85-13.43 34.212.387 14.085 3.684 32.45 9.785 51.758 6.12 19.31 13.98 36.24 21.763 47.99 9.928 15.01 21.27 22.81 31.774 20.004zm-5.182-21.785l-.982-.224c-.123.04-.695-1.024-1.8-2.928l19.45-6.164c.82 1.147 1.617 2.234 2.437 3.276l-19.105 6.04zM494.24 528.1c.247-.06 2.293 4.117 6.573 10.586 6.652 10.095 13.53 24.98 19.02 42.3 5.466 17.32 8.414 33.434 8.765 45.533.203 7.74.94 12.345.716 12.428-.267.082-2.294-4.115-6.573-10.586-6.673-10.07-13.552-24.977-19.02-42.3-5.466-17.3-8.435-33.432-8.762-45.534-.226-7.738-.962-12.344-.718-12.428zm2.5 101c1.022 1.984 2.087 3.89 3.152 5.732l-19.39 6.12c-1.126-1.76-2.272-3.644-3.42-5.65l19.657-6.202zm-8.028-17.323l-19.94 6.327c-1.087-2.6-2.15-5.303-3.175-8.087l19.982-6.326c1.024 2.765 2.07 5.466 3.132 8.087zm-36.28-70.45l.76-.737 18.998-6.02c-.104 2.13-.144 4.34-.062 6.633v.512l-19.266 6.104c-.287-4.118-.592-6.43-.43-6.494zm.9 16.257l19.513-6.184c.245 2.293.552 4.627.92 7.064l-19.735 6.224c-.307-2.478-.532-4.852-.697-7.104zm3.727 23.996l19.982-6.328c.532 2.354 1.146 4.73 1.8 7.146l-20.002 6.326c-.655-2.437-1.227-4.812-1.78-7.144zM769.042 748.872v-.02l-.49-.37-29.197-20.413c-7.473-5.242-18.385-2.006-30.014 7.41-8.885 7.23-19.1 18.43-28.54 31.898-9.417 13.474-16.44 26.925-20.188 37.735-4.873 14.146-4.155 25.51 3.316 30.73.248.185.513.37.778.513l27.68 19.37c.227.184.474.367.74.55.243.186.51.35.776.513l.49.348.043-.042c7.412 4.014 17.752.636 28.705-8.25 8.885-7.207 19.08-18.407 28.518-31.898 9.44-13.472 16.463-26.883 20.188-37.713 4.772-13.82 4.197-25-2.804-30.363zm-94.466 71.782c-.165-.123 1.516-3.523 3.583-9.48 3.193-9.275 9.417-21.048 17.872-33.147 8.455-12.08 17.404-21.948 25.02-28.13 4.893-3.974 7.492-6.737 7.658-6.615.162.125-1.516 3.503-3.564 9.46-3.213 9.274-9.416 21.068-17.895 33.147-8.434 12.078-17.38 21.967-25.018 28.15-4.872 3.973-7.493 6.715-7.656 6.614zm29.196 20.41l-.882-.12-13.245-9.275c1.432-.983 2.865-2.07 4.3-3.237l.326-.265 13.453 9.42c-2.498 2.21-3.85 3.56-3.95 3.477zm10.012-8.617l-13.615-9.52c1.35-1.29 2.72-2.643 4.094-4.075l13.76 9.644c-1.436 1.432-2.85 2.742-4.24 3.95zm13.634-14.25l-13.943-9.766c1.25-1.494 2.478-3.07 3.728-4.668l13.943 9.766c-1.25 1.6-2.498 3.174-3.728 4.67zm14.127-19.553l-13.964-9.766c1.29-2.027 2.5-4.033 3.667-6.018l13.922 9.743c-1.127 1.987-2.335 3.995-3.625 6.04zm10.606-19.9l-13.696-9.604c.778-1.638 1.475-3.275 2.13-4.85l13.532 9.457c-.573 1.6-1.227 3.255-1.965 4.997zm4.75-12.406l-13.573-9.5c.328-1.087.634-2.172.902-3.196l13.325 9.315.35.76c.082.04-.328.96-1.004 2.62zM612.25 737.49c-11.137-8.662-27.434-17.795-46.207-25.328-18.797-7.554-36.854-12.244-50.878-13.697-18.325-1.903-31.757 2.108-35.932 12.53-.144.368-.287.716-.39 1.085l-15.52 38.572c-.164.328-.308.676-.45 1.045-.145.348-.287.696-.39 1.063l-.286.717.06.022c-2.742 10.01 4.18 21.455 17.875 32.122 11.138 8.64 27.415 17.75 46.21 25.305s36.854 12.245 50.856 13.7c17.915 1.86 31.162-1.946 35.646-11.836l.02.022.286-.738 16.36-40.68c4.2-10.422-2.72-22.624-17.26-33.905zM489.347 764c-3.336-2.396-5.344-3.624-5.263-3.787l-.08-1.063 7.41-18.49c1.577 1.435 3.275 2.847 5.08 4.258l.407.308-7.553 18.774zm13.78 9.808c-2.11-1.33-4.096-2.662-5.94-3.974l7.638-18.98c1.925 1.25 3.932 2.522 6.04 3.77l-7.74 19.184zm21.62 11.567c-2.272-1.044-4.505-2.11-6.655-3.173l7.822-19.43c2.17 1.064 4.38 2.107 6.653 3.132l-7.82 19.47zm28.992 10.994c-2.706-.818-5.448-1.697-8.254-2.68l7.823-19.45c2.78.96 5.526 1.883 8.228 2.723l-7.8 19.408zm25.098 5.448c-2.068-.227-4.236-.554-6.51-.942l7.657-19.104c2.212.452 4.36.86 6.43 1.188l-7.577 18.858zm13.903 1.125l-.8.613c-.038.125-1.247-.08-3.417-.45l7.616-18.937c1.393.102 2.742.163 4.074.203l-7.473 18.57zm3.216-41.724c-12.02-1.252-27.887-5.407-44.736-12.185-16.85-6.775-31.182-14.74-40.723-22.172-6.122-4.75-10.154-7.105-10.072-7.332.102-.243 4.646.842 12.345 1.64 12.02 1.27 27.907 5.426 44.757 12.203 16.85 6.758 31.18 14.742 40.723 22.153 6.122 4.75 10.154 7.104 10.053 7.35-.104.225-4.63-.86-12.347-1.657zM838.573 630l.02-.02-.287-.757-16.686-43.405c-4.28-11.118-18.467-15.603-37.918-13.86-14.904 1.31-34.13 5.998-54.175 13.696-20.043 7.72-37.467 17.137-49.383 26.124-15.622 11.754-23.136 24.59-18.856 35.707.144.368.307.738.47 1.106l15.828 41.153c.103.39.245.758.388 1.146.146.368.307.737.473 1.106l.306.757.063-.02c5.098 9.764 18.733 13.656 37.08 12.018 14.882-1.33 34.108-6 54.15-13.72 20.046-7.696 37.468-17.114 49.406-26.102 15.25-11.485 22.763-23.995 19.12-34.928zm-137.975 52.187l-.84-.776-7.576-19.714c2.254-.02 4.586-.146 7.023-.35l.533-.04 7.697 20.003c-4.317.55-6.755 1.04-6.837.877zm17.135-2.005l-7.778-20.27c2.394-.39 4.872-.858 7.412-1.412l7.862 20.494c-2.602.47-5.1.882-7.497 1.188zm25.164-5.508l-7.963-20.72c2.455-.736 4.932-1.535 7.45-2.376l7.965 20.763c-2.518.84-4.996 1.618-7.453 2.334zm29.564-10.85l-7.964-20.764c2.845-1.248 5.65-2.537 8.354-3.826l7.945 20.697c-2.662 1.334-5.446 2.623-8.334 3.893zm-27.802-38.818c-17.976 6.896-34.867 11.075-47.644 12.2-8.19.738-13 1.823-13.103 1.576-.102-.266 4.218-2.7 10.77-7.636 10.238-7.72 25.572-15.948 43.548-22.85 17.976-6.92 34.867-11.075 47.644-12.224 8.19-.716 13.02-1.8 13.103-1.555.104.246-4.196 2.68-10.77 7.637-10.236 7.7-25.572 15.93-43.547 22.852zm53.827 24.997l-7.822-20.372c2.027-1.228 3.993-2.477 5.857-3.704l7.737 20.126c-1.78 1.31-3.705 2.64-5.772 3.95zm17.196-12.08c.043.124-1.04.82-2.986 2.13l-7.78-20.208c1.167-.92 2.272-1.863 3.316-2.784l7.616 19.8-.165 1.064z"/></g></svg>