<svg xmlns="http://www.w3.org/2000/svg" width="1008.458" height="1008.457" viewBox="0 0 1008.458 1008.457"><circle cx="501.973" cy="501.973" r="498.973" fill-rule="evenodd" clip-rule="evenodd" fill="#28a5fc"/><g fill="#FFF"><path d="M434.393 293.23c18.666 16 68 18 68 18 8-.667 54.666 2 90-16.667 35.332-18.666 2.666-44 2.666-44-21.333-16-20.667-27.333-26-34-5.333-6.666-8-32-14-62s-40.667-30-40.667-30c-44.668 0-48.667 40-48.667 40l-6 40c-4 32-25.333 44-25.333 44-33.334 23.334 0 44.667 0 44.667zm65.064-43.2c-3.46 3.937-5.64 9.136-5.807 14.892-.367 12.697 9.182 23.275 21.327 23.627 12.145.35 22.287-9.658 22.654-22.356.17-5.823-1.752-11.196-5.048-15.347 37.273 3.284 65.12 13.787 64.783 25.41-.383 13.25-37.24 22.934-82.326 21.63-45.085-1.302-81.38-11.1-80.998-24.35.334-11.54 28.39-21.89 65.415-23.507zM791.773 490.596l31.55-21.455c6.312 0 6.31-12.62 6.31-12.62l-18.93-29.026c-7.572-10.097-16.406-1.262-16.406-1.262l-27.766 13.882C728.67 330.316 647.9 332.84 647.9 332.84l-271.338 1.262C275.6 337.888 241.524 436.328 241.524 436.328l-13.882-5.048c-23.98-13.883-29.027 1.262-29.027 1.262l-10.096 20.193c-7.573 13.882 2.522 16.406 2.522 16.406l31.55 18.93-1.26 10.1c-102.226 64.362-45.435 238.524-45.435 238.524l3.786 64.363 165.327-1.262v-32.813c80.77 26.504 324.344 6.31 324.344 6.31l3.785 29.026 167.85-5.05 1.263-63.1c55.532-213.283-50.48-243.572-50.48-243.572zm-551.82 105.306c-20.278-34.023 3.69-39.132 3.69-39.132 79.506-.198 116.34 94.364 116.34 94.364-80.794-9.894-120.03-55.232-120.03-55.232zm391.272 152.813H391.202v-81.01h240.023v81.01zM654.21 494.38c0-40.384-15.145-55.528-15.145-55.528-35.338-12.62-71.936 0-71.936 0-16.41 0-20.194 59.316-20.194 59.316h-83.294c-1.263-46.696-17.67-58.054-17.67-58.054H381.61c-20.192 1.262-31.55 54.267-31.55 54.267h-69.413c12.62-92.127 93.392-108.534 93.392-108.534h261.24c76.983 13.882 90.866 109.797 90.866 109.797l-71.936-1.262zm137.563 100.964s-39.123 45.434-119.895 55.53c0 0 36.6-94.653 116.107-94.653 0 0 23.98 5.05 3.788 39.124z"/><path d="M437.31 704.06l4.5-4.312c-2.25-2.5-5.75-5.874-10.5-10.125-1.874 1.752-3.312 3.126-4.312 4.125 3 2.25 6.437 5.69 10.313 10.313z"/><path d="M407.31 712.123v19.125h5.814v-2.063h16.313v2.25h6.188v-25.313h-12c1.248-.75 2.874-1.688 4.875-2.813 1.998-1.25 3.31-2.064 3.938-2.44-1.626-1.874-3.252-3.562-4.875-5.062-1.5 1.5-3.064 2.877-4.688 4.125v-7.688c0-1.125.123-2.063.375-2.813.123-.375.123-.624 0-.75-.252-.25-.75-.437-1.5-.563h-4.875v14.812c-5.25 2.625-11.502 4.438-18.75 5.438.873 1.25 1.875 3 3 5.25 2.25-.372 4.31-.87 6.186-1.497zm5.814-1.312h16.125v2.064h-16.126v-2.063zm0 6.188h16.125v1.875h-16.126v-1.875zm0 6h16.125v2.063h-16.126V723z"/><path d="M412.56 694.123l1.314-1.875c-.252-.25-2.25-1.125-6-2.625-2.376 4.752-5 8.563-7.875 11.438 2.747 1.252 4.622 2.128 5.624 2.626 2.373-3.375 4.687-6.563 6.937-9.563zM447.436 720.56h6.188v6.376h-6.188zM467.5 719.623h13.687l2.625 7.313h7.5l-12.188-34.688h-8.813l-12.562 34.688h7.125l2.626-7.313zm6.936-20.625h.188l4.688 14.813h-9.938L474.436 699zM493 717.748c.248 6.126 4.247 9.31 12 9.563 7.5-.374 11.498-3.562 12-9.562-.127-4.374-2.44-7.187-6.94-8.438 4-1 6.19-3.498 6.564-7.5-.252-5.5-4.125-8.438-11.625-8.813-7.126.627-10.94 3.563-11.44 8.813 0 3.75 2.125 6.252 6.376 7.5v.188c-4.377 1.377-6.688 4.125-6.937 8.25zm11.81-19.875c3.25.126 4.938 1.564 5.064 4.313-.126 2.75-1.626 4.25-4.5 4.5-3.252-.123-4.94-1.623-5.063-4.5.124-2.625 1.624-4.06 4.5-4.313zm.19 14.438c3 .127 4.622 1.876 4.874 5.25-.252 3.253-1.813 5.002-4.688 5.25-3.126-.122-4.752-1.874-4.875-5.25.124-3.248 1.69-4.997 4.69-5.25zM519.624 717.748c.25 6.126 4.248 9.31 12 9.563 7.5-.374 11.498-3.562 12-9.562-.127-4.374-2.438-7.187-6.938-8.438 3.998-1 6.188-3.498 6.563-7.5-.253-5.5-4.126-8.438-11.626-8.813-7.125.627-10.94 3.563-11.438 8.813 0 3.75 2.124 6.252 6.375 7.5v.188c-4.376 1.377-6.687 4.125-6.936 8.25zm11.812-19.875c3.248.126 4.936 1.564 5.063 4.313-.128 2.75-1.628 4.25-4.5 4.5-3.253-.123-4.94-1.623-5.064-4.5.123-2.625 1.623-4.06 4.5-4.313zm.188 14.438c3 .127 4.623 1.876 4.875 5.25-.253 3.253-1.815 5.002-4.69 5.25-3.125-.122-4.75-1.874-4.874-5.25.123-3.248 1.688-4.997 4.688-5.25zM546.25 717.748c.248 6.126 4.247 9.31 12 9.563 7.5-.374 11.498-3.562 12-9.562-.127-4.374-2.44-7.187-6.94-8.438 4-1 6.19-3.498 6.564-7.5-.252-5.5-4.125-8.438-11.625-8.813-7.126.627-10.94 3.563-11.44 8.813 0 3.75 2.125 6.252 6.376 7.5v.188c-4.377 1.377-6.688 4.125-6.937 8.25zm11.81-19.875c3.25.126 4.938 1.564 5.064 4.313-.126 2.75-1.626 4.25-4.5 4.5-3.252-.123-4.94-1.623-5.063-4.5.124-2.625 1.624-4.06 4.5-4.313zm.19 14.438c3 .127 4.622 1.876 4.874 5.25-.252 3.253-1.813 5.002-4.688 5.25-3.126-.122-4.752-1.874-4.875-5.25.124-3.248 1.69-4.997 4.69-5.25zM572.874 717.748c.25 6.126 4.248 9.31 12 9.563 7.5-.374 11.5-3.562 12-9.562-.126-4.374-2.438-7.187-6.938-8.438 4-1 6.188-3.498 6.563-7.5-.253-5.5-4.126-8.438-11.626-8.813-7.125.627-10.94 3.563-11.438 8.813 0 3.75 2.124 6.252 6.375 7.5v.188c-4.376 1.377-6.687 4.125-6.936 8.25zm11.812-19.875c3.25.126 4.937 1.564 5.063 4.313-.127 2.75-1.627 4.25-4.5 4.5-3.253-.123-4.94-1.623-5.064-4.5.123-2.625 1.623-4.06 4.5-4.313zm.188 14.438c3 .127 4.623 1.876 4.875 5.25-.253 3.253-1.814 5.002-4.69 5.25-3.125-.122-4.75-1.874-4.874-5.25.123-3.248 1.688-4.997 4.688-5.25zM599.5 717.748c.248 6.126 4.247 9.31 12 9.563 7.5-.374 11.498-3.562 12-9.562-.127-4.374-2.44-7.187-6.94-8.438 4-1 6.19-3.498 6.564-7.5-.252-5.5-4.125-8.438-11.625-8.813-7.126.627-10.94 3.563-11.44 8.813 0 3.75 2.125 6.252 6.376 7.5v.188c-4.377 1.377-6.688 4.125-6.937 8.25zm11.81-19.875c3.25.126 4.938 1.564 5.064 4.313-.126 2.75-1.626 4.25-4.5 4.5-3.252-.123-4.94-1.623-5.063-4.5.124-2.625 1.624-4.06 4.5-4.313zm.19 14.438c3 .127 4.622 1.876 4.874 5.25-.252 3.253-1.813 5.002-4.688 5.25-3.126-.122-4.752-1.874-4.875-5.25.124-3.248 1.69-4.997 4.69-5.25z"/></g></svg>