<svg xmlns="http://www.w3.org/2000/svg" width="1008.458" height="1008.457" viewBox="0 0 1008.458 1008.457"><circle cx="501.973" cy="502.973" r="498.973" fill-rule="evenodd" clip-rule="evenodd" fill="#61b14a"/><g fill-rule="evenodd" clip-rule="evenodd" fill="#FFF"><path d="M820.16 507.063c-5.74-10.736-20.333-18.365-37.426-18.365-18.483 0-34.032 8.92-38.638 21.043-89.74 125.282-176.29 140.21-308.15 104.31l.02-11.404c107.487 18.488 153.636 7.31 176.875-13.923l.042-41.623c-205.405-74.36-347.026 42.436-438.37 194.34 31.667 38.392 85.94 81.954 172.034 89.386l15.56-.675 33.003-105.01 289.41-10.052L815.77 514.2c3-3.65 4.802-6.366 4.39-7.137zM340.168 271.818c6.12 19.31 13.982 36.24 21.763 47.99 9.93 15.01 21.273 22.81 31.777 20.004h.02l.716-.203 41.81-13.25c10.707-3.378 15.744-16.46 15.23-34.888-.39-14.086-3.706-32.45-9.806-51.76-6.102-19.306-13.963-36.236-21.742-47.97-10.176-15.374-21.826-23.195-32.535-19.796-.368.104-.715.246-1.084.37l-39.617 12.55c-.37.082-.738.183-1.106.308-.348.123-.717.245-1.065.367l-.74.248.024.06c-9.48 4.24-13.924 16.85-13.43 34.21.385 14.088 3.682 32.454 9.784 51.76zm48.357 46.21l-.982-.223c-.123.04-.695-1.024-1.8-2.928l19.45-6.164c.82 1.147 1.617 2.233 2.436 3.276l-19.105 6.04zm5.775-124.297c.247-.06 2.293 4.117 6.573 10.587 6.653 10.093 13.532 24.978 19.02 42.298 5.466 17.323 8.414 33.434 8.764 45.534.204 7.74.94 12.345.716 12.427-.266.082-2.294-4.114-6.573-10.585-6.674-10.072-13.553-24.978-19.02-42.3-5.466-17.3-8.435-33.432-8.763-45.534-.225-7.737-.962-12.344-.717-12.427zm2.498 101c1.024 1.984 2.088 3.89 3.154 5.733l-19.39 6.12c-1.126-1.76-2.272-3.644-3.42-5.65l19.656-6.203zm-8.026-17.322l-19.94 6.327c-1.086-2.6-2.15-5.303-3.175-8.087l19.983-6.326c1.024 2.764 2.068 5.465 3.132 8.086zm-9.87-29.38l-20.002 6.327c-.655-2.436-1.228-4.812-1.78-7.145l19.982-6.328c.533 2.356 1.147 4.73 1.8 7.147zm-5.076-23.933l-19.736 6.225c-.307-2.48-.533-4.852-.696-7.105l19.512-6.183c.244 2.292.55 4.627.92 7.063zm-21.335-17.138l.76-.736 19-6.018c-.104 2.13-.144 4.34-.062 6.632v.512l-19.266 6.102c-.288-4.115-.592-6.43-.43-6.49z"/><path d="M563.988 501.476c.247.184.513.37.778.512l27.68 19.37c.227.184.474.368.74.55.244.186.51.35.776.513l.49.35.043-.042c7.41 4.015 17.75.636 28.705-8.25 8.884-7.206 19.08-18.407 28.518-31.898 9.44-13.473 16.462-26.883 20.188-37.713 4.77-13.82 4.196-25-2.805-30.364v-.02l-.49-.37-29.195-20.413c-7.473-5.24-18.385-2.005-30.014 7.412-8.886 7.228-19.1 18.427-28.54 31.897-9.418 13.472-16.44 26.923-20.19 37.734-4.87 14.148-4.154 25.51 3.318 30.732zm39.843 5.22l-.88-.122-13.246-9.274c1.434-.982 2.865-2.07 4.3-3.236l.327-.265 13.454 9.418c-2.5 2.21-3.85 3.56-3.953 3.48zm10.013-8.618l-13.616-9.52c1.352-1.29 2.723-2.642 4.096-4.075l13.758 9.643c-1.43 1.433-2.846 2.743-4.237 3.952zm13.635-14.25l-13.943-9.766c1.25-1.495 2.478-3.072 3.728-4.67l13.943 9.767c-1.25 1.597-2.498 3.173-3.728 4.668zm16.81-64.556l13.328 9.316.348.76c.083.038-.327.96-1.004 2.62l-13.574-9.5c.327-1.087.634-2.17.903-3.196zm-3.645 10.648l13.532 9.458c-.57 1.598-1.227 3.255-1.966 4.997l-13.697-9.604c.78-1.637 1.475-3.274 2.13-4.85zm4.586 28.314c-1.126 1.987-2.335 3.994-3.625 6.04l-13.964-9.766c1.29-2.028 2.5-4.033 3.667-6.018l13.922 9.744zm-67.012 18.57c3.194-9.274 9.42-21.047 17.873-33.147 8.456-12.08 17.404-21.948 25.02-28.13 4.894-3.973 7.494-6.737 7.66-6.615.16.124-1.517 3.502-3.564 9.46-3.214 9.274-9.417 21.067-17.895 33.147-8.435 12.078-17.38 21.967-25.02 28.15-4.87 3.973-7.49 6.715-7.655 6.614-.164-.122 1.516-3.522 3.583-9.48zM379.293 376.626c-.143.367-.287.715-.39 1.084l-15.52 38.572c-.163.328-.306.676-.448 1.045-.146.348-.288.697-.39 1.063l-.287.717.06.022c-2.743 10.01 4.178 21.455 17.875 32.123 11.138 8.64 27.415 17.75 46.21 25.305 18.794 7.555 36.853 12.245 50.856 13.698 17.914 1.862 31.16-1.945 35.646-11.834l.02.02.287-.737 16.358-40.68c4.2-10.423-2.723-22.625-17.26-33.905-11.138-8.66-27.434-17.793-46.208-25.328-18.796-7.553-36.853-12.244-50.877-13.697-18.325-1.903-31.756 2.11-35.932 12.53zm10.114 53.007c-3.336-2.397-5.343-3.625-5.262-3.788l-.08-1.063 7.41-18.49c1.577 1.435 3.275 2.847 5.08 4.258l.408.307-7.556 18.776zm13.78 9.807c-2.11-1.33-4.096-2.662-5.94-3.973l7.638-18.98c1.924 1.25 3.932 2.52 6.04 3.77l-7.74 19.183zm21.62 11.567c-2.273-1.043-4.505-2.11-6.655-3.172l7.822-19.43c2.17 1.064 4.38 2.107 6.653 3.132l-7.82 19.47zm28.99 10.995c-2.703-.82-5.445-1.698-8.25-2.68l7.822-19.452c2.78.96 5.527 1.885 8.228 2.724l-7.8 19.408zm25.1 5.447c-2.067-.228-4.236-.555-6.51-.943l7.66-19.103c2.21.452 4.36.86 6.427 1.188l-7.577 18.857zm13.903 1.124l-.8.614c-.04.125-1.248-.08-3.418-.45L496.2 449.8c1.393.102 2.742.164 4.074.203l-7.474 18.57zm5.507-47.417c6.123 4.75 10.156 7.104 10.055 7.35-.104.225-4.63-.86-12.348-1.658-12.018-1.25-27.886-5.407-44.735-12.184-16.852-6.776-31.183-14.74-40.724-22.172-6.123-4.75-10.155-7.105-10.072-7.332.102-.245 4.646.84 12.344 1.638 12.02 1.27 27.907 5.426 44.757 12.204 16.85 6.757 31.182 14.742 40.722 22.153zM561.817 314.222l15.828 41.152c.102.39.245.758.388 1.146.146.37.308.738.473 1.107l.306.757.063-.02c5.098 9.764 18.734 13.656 37.078 12.018 14.885-1.33 34.11-6 54.153-13.72 20.046-7.697 37.467-17.114 49.405-26.102 15.253-11.486 22.767-23.996 19.123-34.93l.02-.02-.286-.756-16.688-43.405c-4.28-11.118-18.468-15.603-37.917-13.86-14.906 1.31-34.132 5.998-54.176 13.696-20.043 7.72-37.467 17.137-49.383 26.124-15.622 11.753-23.136 24.59-18.856 35.707.143.367.305.736.47 1.105zm38.84 33.596l-.84-.777-7.575-19.714c2.254-.02 4.585-.145 7.024-.35l.532-.04 7.696 20.003c-4.318.55-6.753 1.04-6.837.878zm17.135-2.005l-7.778-20.27c2.395-.39 4.87-.86 7.412-1.413l7.862 20.494c-2.6.472-5.098.882-7.496 1.19zm25.165-5.508l-7.964-20.72c2.455-.737 4.933-1.536 7.45-2.375l7.966 20.762c-2.52.838-4.996 1.617-7.453 2.333zm29.564-10.85l-7.963-20.763c2.844-1.248 5.65-2.537 8.353-3.827l7.945 20.698c-2.662 1.332-5.446 2.62-8.334 3.892zm35.77-46.764l7.616 19.8-.165 1.064c.042.123-1.042.82-2.987 2.13l-7.78-20.21c1.166-.92 2.272-1.862 3.317-2.783zm-9.745 32.944l-7.823-20.372c2.028-1.228 3.993-2.478 5.856-3.705l7.738 20.126c-1.78 1.31-3.704 2.64-5.77 3.95zM594.74 296.777c10.238-7.72 25.573-15.95 43.548-22.848 17.976-6.922 34.867-11.08 47.643-12.226 8.19-.716 13.023-1.802 13.105-1.556.104.246-4.197 2.68-10.768 7.637-10.236 7.697-25.573 15.93-43.55 22.85-17.975 6.897-34.865 11.075-47.642 12.2-8.19.74-13 1.823-13.104 1.577-.1-.265 4.218-2.7 10.77-7.635z"/></g></svg>